<?xml version="1.0" encoding="utf-8"?>
<!-- Generator: Adobe Illustrator 13.0.2, SVG Export Plug-In  -->
<!DOCTYPE svg PUBLIC "-//W3C//DTD SVG 1.1//EN" "http://www.w3.org/Graphics/SVG/1.1/DTD/svg11.dtd" [
	<!ENTITY ns_flows "http://ns.adobe.com/Flows/1.0/">
]>
<svg version="1.1"
	 xmlns="http://www.w3.org/2000/svg" xmlns:xlink="http://www.w3.org/1999/xlink" xmlns:a="http://ns.adobe.com/AdobeSVGViewerExtensions/3.0/"
	 x="0px" y="0px" width="369px" height="155px" viewBox="-6.379 13.159 369 155" enable-background="new -6.379 13.159 369 155"
	 xml:space="preserve">
<defs>
</defs>
<g>
	<path fill="#DA3537" d="M52.309,44.227c-0.966,6.418-1.933,12.836-2.898,19.254c-1.587,7.729-4.262,13.656-8.022,17.779
		c-3.761,4.123-7.608,7.03-11.542,8.721c-3.485,1.483-7.626,2.226-12.422,2.226c-3.899,0-7.194-0.725-9.886-2.174
		c-3.52-1.933-5.279-4.865-5.279-8.799c0-1.312,1.276-3.088,3.83-5.331c2.415-2.174,4.158-3.261,5.228-3.261
		c0.241,0,0.379,0.069,0.414,0.207c0,0.034-0.061,0.13-0.181,0.284c-0.121,0.156-0.181,0.268-0.181,0.337
		c0.034,0.104,0.172,0.155,0.414,0.155c0.276,0,0.431-0.068,0.466-0.207c0-0.034-0.026-0.121-0.078-0.259s-0.078-0.224-0.078-0.259
		c0-0.138,0.155-0.207,0.466-0.207h1.863c0.241,0.932,0.362,2.036,0.362,3.312c0,0.863-0.069,2.096-0.207,3.701
		c-0.138,1.604-0.207,2.734-0.207,3.39c0,3.45,1.673,5.176,5.021,5.176c5.728,0,9.886-3.899,12.474-11.697
		c0,1.001,0.155,1.656,0.466,1.967c0.379-0.311,0.569-0.655,0.569-1.035c0-0.276-0.129-0.725-0.388-1.346s-0.354-1.069-0.285-1.346
		c1.276-5.866,2.243-10.265,2.898-13.198c1.415-9.213,2.226-14.268,2.433-15.165c0.759-3.105,2.087-6.056,3.985-8.851
		c1.069-1.587,3.14-3.502,6.211-5.745c3.312-2.415,5.814-3.623,7.505-3.623c1.38,0,2.45,0.742,3.209,2.226
		C55.57,32.806,53.517,37.395,52.309,44.227z M13.439,81.389l-1.656-0.569l-0.259,0.673l1.915,0.621V81.389z M71.925,31.339
		c-0.38-1.449-1.122-3.148-2.226-5.098c-1.104-1.949-1.846-2.924-2.226-2.924c-0.38,0-0.535,0.086-0.466,0.259
		c0.069,0.173-0.086,0.259-0.466,0.259c0.207,0-0.242-0.518-1.346-1.553c-1.312-1.242-3.123-2.294-5.435-3.157
		c-3.83-1.415-6.297-2.122-7.401-2.122c-0.345,0-0.75,0.155-1.216,0.466s-0.872,0.466-1.216,0.466c-0.345,0-1.07-0.155-2.174-0.466
		c-1.104-0.311-1.846-0.466-2.226-0.466c-5.935,0-12.094,2.105-18.478,6.314c-6.211,4.106-10.455,8.695-12.732,13.768
		c0.069,0.759-0.225,1.863-0.88,3.312c-0.656,1.449-0.932,3.227-0.828,5.331c0.414,0,0.836-0.155,1.268-0.466
		c0.431-0.311,0.681-0.466,0.75-0.466c0.311,0.311,0.431,0.587,0.362,0.828c0.104,2.312,0.371,3.925,0.802,4.839
		c0.431,0.915,0.647,1.475,0.647,1.682c0,0.483-0.121,0.656-0.362,0.518c-0.518-0.241-0.88-0.362-1.087-0.362
		c1.518,1.519,2.57,2.277,3.157,2.277c1.035,0,3.727-0.862,8.074-2.588c-0.552-1.967-0.949-3.657-1.19-5.072
		c-0.069-0.172-0.621-0.828-1.656-1.967c-0.725-0.793-1.087-2.294-1.087-4.503c0-4.52,2.743-8.971,8.229-13.354
		c5.176-4.141,10.006-6.211,14.492-6.211c5.106,0,8.988,0.569,11.646,1.708c4.451,1.967,6.677,5.625,6.677,10.973
		c0,2.898-0.535,5.728-1.604,8.488c-0.38,0.966-1.553,2.778-3.52,5.435c-1.794,2.416-2.691,3.813-2.691,4.192
		c0,0.725,0.569,1.397,1.708,2.019c1.035,0.587,2.104,0.88,3.209,0.88c1.104,0,3.002-1.009,5.693-3.028s4.037-3.614,4.037-4.788
		c0-0.345-0.138-0.793-0.414-1.346c-0.276-0.552-0.414-0.932-0.414-1.139c0-0.138,0.052-0.276,0.155-0.414
		c0.655,0.725,1.156,1.277,1.501,1.656c1.415-4.555,2.122-7.47,2.122-8.747C73.116,35.98,72.719,34.169,71.925,31.339z
		 M13.801,51.111l-0.466-3.261h0.828l0.518,3.261H13.801z M13.801,42.312v-2.277h0.88v2.277H13.801z M14.319,43.761v-1.294h0.828
		v1.294H14.319z M26.896,51.68c-0.552-1.76-0.932-3.191-1.139-4.296c0.586,0,1.38,0.5,2.381,1.501v1.656L26.896,51.68z
		 M33.728,79.578h-0.88l0.518,3.261h0.828L33.728,79.578z M34.453,75.696l-1.087,2.588l0.725,0.311l1.087-2.898H34.453z
		 M49.669,50.749l-0.673-0.311l0.621-1.242l0.725,0.259L49.669,50.749z M62.531,44.978c-1.053,0.708-1.734,1.286-2.044,1.734
		c0.966-0.932,1.673-1.397,2.122-1.397c0.759,0,1.121,0.155,1.087,0.466c0-0.725,0.207-1.294,0.621-1.708
		C64.179,43.968,63.583,44.271,62.531,44.978z M62.609,51.991L61.47,52.56v0.725l1.449-0.621L62.609,51.991z M63.903,50.334v-0.673
		l1.139-0.621l0.311,0.725L63.903,50.334z M68.716,34.6l-0.673-0.311l0.621-1.242l0.725,0.259L68.716,34.6z"/>
	<path fill="#DA3537" d="M66.7,86.461c-0.483-0.725-1.061-2.338-1.734-4.84c-0.673-2.501-1.009-4.321-1.009-5.46
		c0-2.14,0.259-4.071,0.776-5.797c0.655-1.897,1.311-3.795,1.967-5.693V86.461z M68.925,76.627H67.89v-2.122h1.035V76.627z
		 M110.642,75.023c0.483,0.759,0.725,1.519,0.725,2.277c0,1.829-1.208,3.485-3.623,4.969c-2.105,1.276-4.02,1.915-5.745,1.915
		c-1.726,0-4.192-0.776-7.401-2.329c-6.107,6.901-11.076,10.352-14.906,10.352H76.43c-2.277,0-4.175-0.639-5.693-1.915
		c-0.311-0.655-0.983-1.467-2.019-2.433c0.104,0,0.578-0.034,1.423-0.104c0.845-0.069,1.613-0.104,2.303-0.104
		c0.414-0.345,0.586-1.346,0.518-3.002c-0.552,0-0.828,0.776-0.828,2.329c-0.656-0.379-1.156-0.569-1.501-0.569v-2.226
		c0.104,0.104,0.224,0.155,0.362,0.155c0.104,0,0.379-0.12,0.828-0.362c0.448-0.241,0.897-0.362,1.346-0.362
		c0.448,0,0.673,0.069,0.673,0.207c0,0.034-0.043,0.121-0.129,0.259c-0.086,0.139-0.129,0.259-0.129,0.362
		c0.034,0.138,0.086,0.241,0.155,0.311c0.759-0.725,0.932-1.312,0.518-1.76c-0.552,0-0.483-0.069,0.207-0.207
		c0.448-0.069,0.811,0.018,1.087,0.259c0.207-0.207,0.457-0.354,0.75-0.439c0.293-0.086,0.543-0.216,0.75-0.389
		c-1.656-0.966-3.054-1.708-4.192-2.226c0.414-1.035,1.208-2.243,2.381-3.623c-0.621-0.794-1.501-1.449-2.64-1.967l-1.967,1.708
		c0-0.862-0.138-1.432-0.414-1.708c-0.414,0.241-0.621,0.535-0.621,0.88c0-0.311-0.19-1.225-0.569-2.743
		c-0.38-1.519-0.569-2.64-0.569-3.364c0-0.621,0.121-1.069,0.362-1.346c0.518-0.207,0.776-0.586,0.776-1.139
		c0,0.587,0.189,1.07,0.569,1.449c1.173-1.829,1.76-2.984,1.76-3.468c-0.035,0.414,0.138,0.811,0.518,1.19
		c0-0.172,0.069-0.483,0.207-0.932c0.069-0.311,0.069-0.586,0-0.828c-0.104-0.311-0.414-0.638-0.932-0.983
		c0.414,0.173,1.139,1.277,2.174,3.312c0.311,0,0.483-0.172,0.518-0.518c0.069-0.345-0.052-0.655-0.362-0.932
		c0.552-0.552,1.587-0.828,3.105-0.828c0.311,0.104,0.466-0.293,0.466-1.19c0-0.586-0.276-1.087-0.828-1.501
		c-0.414-0.241-0.828-0.5-1.242-0.776c-0.725,0.69-1.087,1.242-1.087,1.656c-0.173-0.172-0.475-0.302-0.906-0.388
		c-0.432-0.086-0.621-0.25-0.569-0.492c0.052-0.241-0.095-0.707-0.44-1.397l-1.087,1.139h-2.07c0-0.518,0.5-1.259,1.501-2.226
		c0,0.794,0.172,1.363,0.518,1.708c1.069-0.69,2.743-1.967,5.021-3.83c-0.207-0.518-0.69-1.225-1.449-2.122
		c0.276-0.69,2.01-1.88,5.202-3.571c3.191-1.69,5.426-2.519,6.703-2.484h3.157c0,0.173-0.38,0.621-1.139,1.346
		c-0.035,0.035-0.069,0.052-0.104,0.052c-0.035,0.069,0.017,0.129,0.155,0.181c0.138,0.052,0.414,0.078,0.828,0.078
		c0.448,0,1.432-0.379,2.95-1.139c1.518-0.759,2.519-1.139,3.002-1.139c1.967,0,3.537,0.776,4.71,2.329
		c1.035,1.415,1.553,3.123,1.553,5.124c0,2.761-0.88,7.66-2.64,14.699c-0.138,0.656-0.656,1.933-1.553,3.83
		c-0.794,1.726-1.19,2.812-1.19,3.261c0,1.897,1.794,2.847,5.383,2.847c1.587,0,2.95-0.345,4.089-1.035
		C106.984,78.526,108.502,77.163,110.642,75.023z M71.306,83.511h-1.035v-1.553h1.035V83.511z M71.875,74.919v-2.122H70.84v2.122
		H71.875z M74.205,67.415l-0.621-0.569l-1.449,1.346l0.569,0.621L74.205,67.415z M73.635,72.59v-1.501h-0.983v1.501H73.635z
		 M76.016,87.548v-1.553h-0.983v1.553H76.016z M93.614,51.577h-4.348c-1.829-0.034-3.968,1.432-6.418,4.399
		c-3.105,3.796-4.848,5.832-5.228,6.107c0.379,0,0.828,0.207,1.346,0.621C77.655,69.64,77,73.454,77,74.143
		c0,2.588,0.483,4.951,1.449,7.091c1.173,2.726,2.881,4.089,5.124,4.089c1.173,0,2.588-0.586,4.244-1.76
		c1.897-1.38,3.261-3.002,4.089-4.865c-2.795-3.554-4.192-6.125-4.192-7.712c0-0.518,0.138-0.914,0.414-1.19
		c0.725,0,1.087,0.293,1.087,0.88c0-0.173-0.104-0.544-0.311-1.112c-0.207-0.57-0.311-0.958-0.311-1.165
		c0-0.241,0.086-0.017,0.259,0.673c0.069,0.139-0.207,0.207-0.828,0.207c-0.863,0-1.294-0.742-1.294-2.226
		c0-1.346,0.224-2.329,0.673-2.95c0.759,1.484,1.501,2.623,2.226,3.416c-0.587-4.417-0.828-7.004-0.725-7.764
		c-0.173-0.311-0.259-0.655-0.259-1.035c0-0.966,0.725-2.26,2.174-3.882C92.579,52.836,93.51,51.75,93.614,51.577z M91.492,69.744
		l-0.725-2.226l-0.88,0.259l0.725,1.967H91.492z"/>
	<path fill="#DA3537" d="M159.762,62.032c0,5.556-2.019,11.663-6.056,18.322c-4.658,7.626-9.869,11.438-15.631,11.438
		c-0.449,0-1.027,0.095-1.734,0.284s-1.319,0.285-1.837,0.285c-3.278,0-5.831-0.983-7.66-2.95c-1.312,3.864-2.26,7.608-2.847,11.231
		c-1.38,0-3.511-0.086-6.392-0.259c-2.881-0.173-4.495-0.259-4.839-0.259c-0.483,0-0.776,0-0.88,0c-0.104,0.034-0.104,0.086,0,0.155
		c0.345,0.276,0.518,0.431,0.518,0.466c0.518-9.352,2.433-19.357,5.745-30.02c-0.207-0.207-0.466-0.569-0.776-1.087
		s-0.569-0.862-0.776-1.035c-0.828,0.241-2.295,1.035-4.399,2.381c0.069,0.207,0.155,0.414,0.259,0.621
		c-0.069-0.034,0.241-0.052,0.932-0.052c0.586,0,1.208-0.207,1.863-0.621c0.552-0.345,1.104-0.689,1.656-1.035
		c-3.589,4.486-6.694,7.799-9.316,9.938v-2.898c1.069,0.553,1.812,0.604,2.226,0.155c0-0.207-0.242-0.362-0.725-0.466
		c-0.794-0.207-1.346-0.396-1.656-0.569c1.449-1.794,2.898-3.571,4.348-5.331c2.001-2.415,3.554-3.692,4.658-3.83
		c0-0.793-0.086-1.415-0.259-1.863c-0.276-0.586-0.414-0.914-0.414-0.983c0.586-0.932,1.69-3.226,3.312-6.884
		c1.346-3.036,2.691-5.348,4.037-6.936c0.966-1.104,2.76-1.846,5.383-2.226c2.174-0.241,4.348-0.483,6.521-0.725
		c-0.207,1.38-0.414,2.761-0.621,4.141c-0.414,2.07-1.087,3.157-2.019,3.261l1.035,0.828c0.552-0.172,1.242-0.725,2.07-1.656
		c1.104-1.311,1.742-2.053,1.915-2.226c3.45-2.967,6.849-4.451,10.196-4.451C155.708,47.177,159.762,52.129,159.762,62.032z
		 M122.807,104.421c-0.794,6.936-1.19,10.61-1.19,11.024c-2.898,0.414-7.194,1.225-12.888,2.433
		c0.552-3.899,1.156-8.419,1.812-13.561C115.164,104.905,119.253,104.939,122.807,104.421z M121.151,72.797l-0.311-0.828
		l-1.397,0.725v0.828L121.151,72.797z M122.445,58.926l-0.621-0.621l-2.019,2.07l0.569,0.621L122.445,58.926z M123.635,60.686
		l-0.621-0.569l-2.019,2.019l0.569,0.673L123.635,60.686z M129.95,61.514c-1.691,0.242-3.364,0.483-5.021,0.725
		c-1.346,0.276-2.208,0.966-2.588,2.07c0.138,0,0.371-0.078,0.699-0.233c0.328-0.155,0.785-0.233,1.372-0.233
		c0.552,0,0.871,0.293,0.958,0.88c0.086,0.587,0.198,0.88,0.336,0.88c1.587-1.587,2.381-2.777,2.381-3.571
		c0.276,0.276,0.655,0.328,1.139,0.155C129.708,62.049,129.95,61.825,129.95,61.514z M125.913,77.559l-1.708,0.725v-0.88
		l1.397-0.725L125.913,77.559z M130.467,57.943c-1.863,0.932-3.399,1.397-4.606,1.397l3.364,0.88
		C130.053,59.392,130.467,58.633,130.467,57.943z M130.208,67.829l-0.673-0.569l-2.019,2.019l0.569,0.621L130.208,67.829z
		 M146.667,65.292c0-6.521-1.674-9.782-5.021-9.782c-4.071,0-7.591,4.003-10.559,12.008c-2.277,6.246-3.416,11.353-3.416,15.32
		c0,1.519,0.629,2.795,1.89,3.83c1.259,1.035,2.699,1.553,4.321,1.553c3.796,0,7.021-3.227,9.679-9.679
		C145.632,73.47,146.667,69.053,146.667,65.292z M131.399,59.496l-0.621-0.569l-1.501,1.449l0.621,0.621L131.399,59.496z"/>
	<path fill="#DA3537" d="M251.068,48.005c0,1.587-0.139,2.588-0.414,3.002c0.379,0.828,0.568,1.604,0.568,2.329
		c0,3.312-3.002,5.366-9.006,6.159c0.035-0.69-0.104-1.432-0.414-2.226c-0.414,0.483-0.656,1.061-0.725,1.734
		s-0.275,1.13-0.621,1.372c-1.484,0.552-2.812,3.088-3.984,7.608c-1.381,5.349-2.951,9.04-4.711,11.076
		c-2.416,4.278-5.693,7.591-9.834,9.938c-3.898,2.174-8.074,3.261-12.525,3.261c-1.621,0-4.744-0.414-9.367-1.242
		c-2.174-0.379-4.314-1.483-6.418-3.312c-2.244-1.932-3.365-3.848-3.365-5.745c0-1.173,0.897-2.898,2.691-5.176
		c1.829-2.415,3.398-3.623,4.711-3.623h2.588c0.725,5.383,1.258,8.592,1.604,9.627c1.311,3.968,3.744,5.952,7.299,5.952
		c1.76,0,3.812-1.121,6.158-3.364s3.83-4.468,4.451-6.677c-0.035,0.449,0,1.795,0.104,4.037l1.139-0.673l-0.518-6.211
		c0.656-1.933,1.346-4.278,2.07-7.039v-2.795c-1.621,0.069-5.141,1.242-10.559,3.52c1.518-3.968,4.141-7.522,7.867-10.662
		c2.934-2.45,4.537-5.745,4.814-9.886c0.654,0.656,1.275,0.708,1.863,0.155c0-0.552-0.502-0.828-1.502-0.828
		c1.414-1.967,2.277-4.417,2.588-7.35c0.311,0,0.639,0.19,0.984,0.569c0.482,0.449,0.861,0.742,1.139,0.88
		c0.311-0.483,0.793-1.139,1.449-1.967c1.689,0.069,2.639-0.448,2.846-1.553c0.139,0.518,0.689,1.881,1.656,4.089
		c0.207,0,0.553-0.017,1.035-0.052c0.449,0,0.896,0,1.346,0c0.518,0,0.777-0.328,0.777-0.983c-0.588,4.244-0.535,7.608,0.154,10.093
		c0.621,0,1.242,0.328,1.863,0.983c0.275-0.207,1.07-0.966,2.381-2.277c0.828-0.793,1.812-1.38,2.951-1.76l1.242,0.983
		C248.134,49.455,249.341,48.799,251.068,48.005z M217.425,25.387c-0.484,1.001-0.691,1.812-0.621,2.433
		c-0.174-0.172-0.439-0.336-0.803-0.492c-0.361-0.155-0.631-0.319-0.803-0.492c-1.518,1.519-3.777,2.916-6.779,4.192
		c-1.346,2.208-2.02,5.176-2.02,8.902c0,0.38,0.164,0.837,0.492,1.372c0.328,0.535,0.492,0.854,0.492,0.958
		c-0.795,0.794-0.812,1.277-0.053,1.449c4.416,0.656,6.625,1.984,6.625,3.985c0,0.932-0.535,1.656-1.604,2.174
		c-0.207,0.69-0.881,1.501-2.02,2.433c-1.311,1.139-2.535,1.708-3.674,1.708c-2.037,0-3.762-1.259-5.176-3.778
		c-1.105-2.001-1.656-3.761-1.656-5.279c0-3.727,1.535-8.178,4.605-13.354c2.83-4.831,5.953-8.592,9.369-11.283
		c0,0.38-0.174,0.932-0.518,1.656c-0.484,1.035-0.777,1.708-0.881,2.019c0.242,0.242,0.5,0.259,0.777,0.052
		c0.275-0.207,0.414-0.448,0.414-0.725c0.414,0.518,0.982,1.363,1.707,2.536c0.275,0,0.467-0.155,0.57-0.466
		c0.137-0.311,0.086-0.586-0.156-0.828c0.172,0.173,0.5,0.336,0.984,0.492C217.183,25.206,217.425,25.318,217.425,25.387z
		 M202.001,86.047l-0.621,1.708l-0.725-0.259l0.621-1.449H202.001z M206.503,45.832l-1.242,1.242l-0.518-0.518l1.242-1.242
		L206.503,45.832z M211.111,27.768h-0.881v-1.863h0.881V27.768z M218.201,17.261c0.275,0.414,0.414,0.88,0.414,1.397
		c0,0.621-0.242,1.484-0.725,2.588c-0.621,1.553-1,2.571-1.139,3.054c-0.863-0.862-1.293-1.535-1.293-2.019
		c0-0.345,0.207-0.888,0.621-1.63c0.414-0.742,0.621-1.285,0.621-1.63c0,0.863,0.154,1.449,0.465,1.76
		c0.172-0.345,0.346-0.932,0.518-1.76S218.029,17.606,218.201,17.261z M222.912,27.25c-0.484-0.069-1.967-0.104-4.451-0.104
		c1.346-0.655,2.363-1.397,3.053-2.226c-0.621-0.138-1.484,0.121-2.588,0.776c-0.104-0.932,0.328-1.397,1.295-1.397
		c0.518,0,0.828-0.078,0.932-0.233s0.207-0.336,0.311-0.543c-0.242-0.483-0.311-0.845-0.207-1.087
		c0.275-0.483,0.414-1.19,0.414-2.122c0.068,0.345,0.326,0.863,0.775,1.553C222.652,22.144,222.808,23.938,222.912,27.25z
		 M220.634,87.962l-0.621,1.346l-0.725-0.311l0.621-1.294L220.634,87.962z M225.24,15.864l-0.621,2.329h-0.828l0.57-2.329H225.24z
		 M225.654,25.957l-0.568,0.466l-1.191-1.19l0.467-0.518L225.654,25.957z M228.191,16.071L227,17.882l-0.672-0.466l1.189-1.76
		L228.191,16.071z M227.207,75.075h-0.879v-2.847h0.879V75.075z M230.519,52.767c0,2.381-0.311,5.142-0.932,8.281
		c-1.035-1.311-1.535-2.415-1.5-3.312v-7.194C229.708,51.059,230.519,51.801,230.519,52.767z M229.691,64.309l-0.621,1.346
		l-0.725-0.311l0.621-1.294L229.691,64.309z M230.208,69.019h-0.725l-0.621-1.19l0.725-0.259L230.208,69.019z M230.208,24.249V21.35
		h-0.879v2.898H230.208z M234.298,42.674c-0.828,0-2.398,0.38-4.711,1.139c0.621-0.828,1.381-1.449,2.277-1.863
		c0.621,0.621,0.932,0.535,0.932-0.259C232.796,42.347,233.296,42.674,234.298,42.674z M231.244,23.213h-0.879v-4.865h0.879V23.213z
		 M232.228,21.195h-0.881v-2.329h0.881V21.195z M233.21,26.733v-5.331h-0.879v5.331H233.21z M233.21,17.158h-0.828v-2.329h0.828
		V17.158z M234.246,26.733v-4.865h-0.879v4.865H234.246z M235.23,37.602l-0.674,0.414l-1.189-1.76l0.672-0.466L235.23,37.602z
		 M236.265,22.23h-0.881v-5.383h0.881V22.23z M238.025,41.329c-1.623-0.655-2.434-1.622-2.434-2.898
		c0-0.932,0.482-1.397,1.449-1.397c-0.586,0.587-0.379,1.208,0.621,1.863l0.104,1.294C237.8,40.639,237.886,41.018,238.025,41.329z
		 M237.248,22.696h-0.879v-4.865h0.879V22.696z M238.283,45.366h-0.828l-0.621-2.329h0.881L238.283,45.366z M238.283,24.249v-3.364
		h-0.879v3.364H238.283z M239.267,39.31h-0.725l-1.139-2.174l0.725-0.311L239.267,39.31z M239.267,19.176h-0.881V16.33h0.881V19.176
		z M242.269,21.195h-0.828v-2.847h0.828V21.195z M243.304,21.712h-0.881v-3.364h0.881V21.712z M244.287,20.211h-0.879v-3.364h0.879
		V20.211z M244.287,26.267h-0.879v-2.898h0.879V26.267z M250.291,49.455l-2.795,2.484l-0.465-0.725l2.742-2.433L250.291,49.455z
		 M249.359,21.712h-0.879v-2.329h0.879V21.712z M250.343,21.712h-0.881v-3.364h0.881V21.712z"/>
	<path fill="#DA3537" d="M259.765,91.171c-2.898-0.828-5.09-3.364-6.573-7.608c-1.001-3.002-1.501-6.072-1.501-9.213
		c0-2.484,0.759-7.039,2.277-13.664c0.896-3.795,1.794-7.591,2.691-11.387c0,0.966,0.111,2.51,0.336,4.632s0.337,3.684,0.337,4.684
		c-0.587-0.586-1.122-0.655-1.604-0.207c0,1.449-0.035,1.846-0.104,1.19c0.068,0.518,0.396,0.776,0.983,0.776
		c0.586,0,0.932-0.086,1.035-0.259c0.104-0.172,0.224-0.259,0.362-0.259c0,3.692,0.293,9.455,0.88,17.287
		c0.586,7.488,0.88,11.283,0.88,11.387V91.171z M255.728,71.038c-0.242,0-0.535,0.225-0.88,0.673
		c-0.483,0.725-0.76,1.122-0.828,1.19c0.345,0.346,0.88,0.621,1.604,0.828C255.625,72.004,255.659,71.107,255.728,71.038z
		 M285.799,73.781c0.275,3.243,0.275,5.124,0,5.642c-0.967,1.656-3.882,4.089-8.747,7.298c-5.038,3.382-8.575,5.055-10.61,5.021
		h-5.383c-0.207-3.761-0.673-9.799-1.397-18.115c-0.656-7.557-0.983-11.49-0.983-11.801c0-0.828,0.052-2.536,0.155-5.124
		c0.345-0.241,0.707-0.483,1.087-0.725c0.586-0.518,0.811-1.19,0.673-2.019c-0.104,0.104-0.449,0.345-1.035,0.725
		c-0.414,0.276-0.621,0.518-0.621,0.725c0-0.586-0.139-1.88-0.414-3.882c-0.276-2.001-0.414-3.226-0.414-3.675
		c0-2.553,1.276-6.866,3.83-12.939c0.828-2.174,1.639-4.33,2.433-6.47c1.069-2.622,2.32-4.511,3.753-5.667
		c1.431-1.156,3.907-2.303,7.427-3.442c3.036-1,5.072-1.501,6.107-1.501c2.139,0,3.209,2.916,3.209,8.747
		c0,4.728-1.174,10.007-3.52,15.838c-2.209,5.452-5.038,10.455-8.488,15.01c0-0.828-0.294-1.242-0.88-1.242
		c0,0.863-0.483,2.26-1.449,4.192c0-0.793-0.328-1.19-0.983-1.19c-0.414,0.38-0.621,0.897-0.621,1.553
		c0,1.173-0.018,1.777-0.052,1.812c-0.897,0.794-2.122,2.157-3.675,4.089c-1.242,2.208-1.863,4.676-1.863,7.401
		c0,0.863,0.707,2.58,2.122,5.15c1.414,2.57,2.397,4.028,2.95,4.373c0.793,0.449,1.621,0.673,2.484,0.673
		c1.621,0,4.244-1.294,7.867-3.882C282.245,77.835,284.591,75.644,285.799,73.781z M261.784,64.102l-0.828-0.311l-0.776,1.501
		l0.828,0.362L261.784,64.102z M264.165,64.93l-0.673-2.743h-1.035l0.673,2.743H264.165z M267.425,60.375l-0.311-0.828l-1.346,0.725
		v0.88L267.425,60.375z M280.779,24.921c-0.932-0.793-1.847-1.19-2.743-1.19c-2.968,5.072-5.383,10.887-7.246,17.442
		c-1.035,3.692-2.312,9.489-3.83,17.391c9.281-11.214,13.923-21.583,13.923-31.106C280.882,26.595,280.847,25.75,280.779,24.921z"/>
	<path fill="#DA3537" d="M293.047,91.327h-4.451c-3.348-2.104-5.021-6.297-5.021-12.577c0-4.244,1.018-8.988,3.054-14.233
		c2.139-4.899,4.278-9.799,6.418-14.699V91.327z M293.72,117.878c-3.969-1.38-5.952-3.882-5.952-7.505
		c0-1.656,0.534-3.485,1.604-5.486c1.139-2.14,2.57-3.812,4.296-5.021c-0.035,1.829-0.423,3.907-1.164,6.237
		c-0.743,2.328-1.113,3.855-1.113,4.58c0,1.553,0.776,2.605,2.329,3.157V117.878z M295.221,117.827h-1.035v-1.604h1.035V117.827z
		 M306.453,48.057c-0.932,2.243-2.605,6.246-5.021,12.008c-0.621-0.621-1.329-0.655-2.122-0.104
		c0.311-0.759,0.621-1.518,0.932-2.277c0.518-1.173,1.19-1.915,2.019-2.226c-0.069-0.276-0.362-0.759-0.88-1.449
		c-0.38,0.414-0.569,0.811-0.569,1.19c-0.276-0.793-0.501-1.19-0.673-1.19c-0.38,0-0.682-0.198-0.905-0.595
		c-0.226-0.396-0.527-0.595-0.906-0.595c-0.897-0.172-1.346-0.224-1.346-0.155c0.345,0.621,0.518,1.07,0.518,1.346
		c0,0.38-0.139,0.776-0.414,1.19c-0.104-0.276-0.604-1.018-1.501-2.226c-0.76-1.035-1.139-1.794-1.139-2.277
		c0-0.655,1.276-1.294,3.83-1.915c2.242-0.518,3.898-0.759,4.969-0.725H306.453z M338.853,74.557
		c0.034,0.311,0.052,0.639,0.052,0.983c0,3.692-2.709,7.194-8.126,10.507c-4.244,2.347-8.488,4.693-12.732,7.039
		c-1.104,5.072-3.606,10.127-7.505,15.165c-4.658,5.97-9.593,9.161-14.803,9.575c0-0.139,0.095-0.561,0.285-1.268
		c0.188-0.708,0.284-1.286,0.284-1.734c-1.242,0-1.863-0.121-1.863-0.362c0.068-0.518,0.569-0.776,1.501-0.776
		c0.482,0,0.741,0.129,0.776,0.389c0.034,0.258,0.068,0.508,0.104,0.75c0.034,0.068,0.104,0.104,0.207,0.104
		c0.068-0.069,0.104-0.569,0.104-1.501c0,0.207,0.25,0.362,0.751,0.466c0.499,0.104,0.854,0.241,1.061,0.414
		c0.275-0.276,0.275-0.569,0-0.88c-0.242-0.311-0.535-0.466-0.88-0.466c0.311-0.449,1.535-2.795,3.675-7.039
		c1.553-3.037,2.933-4.951,4.141-5.745c-0.863-0.345-1.329-0.587-1.397-0.725c-0.035-0.104,0.034-0.655,0.207-1.656
		c-0.242-0.207-0.88-0.276-1.915-0.207c-2.209,0.173-4.192,0.259-5.952,0.259c2.381-1.242,5.555-3.364,9.523-6.366
		c0.448-0.483,0.88-1.639,1.294-3.468c0.482-2.07,0.914-3.484,1.294-4.244v-1.553c-0.725-0.034-1.433,0.621-2.122,1.967
		l-1.242-1.242c-0.311,0.311-0.414,0.725-0.311,1.242c0.104,0.553,0.311,0.828,0.621,0.828c-0.069,0.656-0.569,0.983-1.501,0.983
		c-0.587,0-1.251-0.241-1.993-0.725s-1.182-0.725-1.319-0.725c5.59-4.658,9.627-10.386,12.111-17.184
		c1.621-4.589,3.243-9.161,4.865-13.716c2.174-3.727,6.279-5.59,12.318-5.59h2.588l-12.681,37.059v2.122
		C325.585,85.996,331.779,81.769,338.853,74.557z M302.83,86.772c-0.139,0.104-1.122,0.932-2.95,2.484
		c-1.242,1.035-2.148,1.553-2.717,1.553c-0.57,0-1.045,0.078-1.424,0.232c-0.38,0.156-0.708,0.233-0.983,0.233
		c0.311-0.483,0.689-1.639,1.139-3.468c0.172,0.346,0.431,0.742,0.776,1.19c0.552,0,0.828-0.5,0.828-1.501
		c0.414-0.034,1.328-0.172,2.743-0.414C301.415,86.875,302.277,86.772,302.83,86.772z M298.585,67.415
		c-0.38,0-0.915-0.225-1.604-0.673c0,0.138,0.104,0.725,0.311,1.76c0.138,0.587,0.086,0.983-0.155,1.19l-1.346-1.19
		c0,4.865,0.034,6.866,0.104,6.004c-0.104-0.897,0.172-2.053,0.828-3.468C297.343,69.831,297.964,68.623,298.585,67.415z
		 M299.672,63.688c0,0.207-0.087,0.595-0.259,1.165c-0.173,0.569-0.259,0.94-0.259,1.113h-2.174v-2.277
		c0.311,0.311,0.759,0.466,1.346,0.466C298.913,64.154,299.362,63.999,299.672,63.688z M298.844,56.959h-1.035v-1.656h1.035V56.959z
		 M298.844,61.152h-1.035v-2.226h1.035V61.152z M298.844,63.584h-1.035v-1.656h1.035V63.584z M300.656,51.525v-1.656h-1.035v1.656
		H300.656z M315.821,82.062c0-0.173,0.068,0.483,0.207,1.967c0.068,0.794-0.018,1.433-0.259,1.915c0-0.828-0.207-1.242-0.621-1.242
		c-0.104,0-0.207,0.052-0.311,0.155C315.493,84.27,315.821,83.338,315.821,82.062z M316.908,76.576l-0.828-0.311l-0.776,1.553
		l0.828,0.362L316.908,76.576z"/>
	<path fill="#DA3537" d="M9.326,128.589c-4.168-5.442-7.277-9.646-9.328-12.614h41.34v12.614H9.326z M359.974,61.704
		c-0.143,0-0.442-0.123-0.901-0.371c-0.46-0.247-0.972-0.371-1.536-0.371c-3.535,0-10.601,4.735-21.2,14.204v4.664
		c0.212-0.142,2.014-1.272,5.406-3.392c2.119-1.342,3.427-2.015,3.922-2.015c0.776,0,1.307,0.106,1.59,0.317
		c-6.644,10.884-16.253,20.035-28.832,27.455c-10.529,6.217-20.739,10.033-30.634,11.447c-0.637,0.07-2.015,0.354-4.135,0.848
		c-1.836,0.494-3.002,0.742-3.498,0.742l-101.336,1.166c-0.564,0-0.688-0.195-0.371-0.582c0.318-0.39,0.23-0.584-0.265-0.584
		c-0.212,0-1.536,0.176-3.975,0.53c-2.438,0.353-4.575,0.493-6.413,0.425H64.552c0.283,0.211,0.389,0.529,0.318,0.953
		c0,0.354-0.175,0.53-0.53,0.53c-0.989-1.132-2.897-1.696-5.724-1.696c-0.494,0-1.272,0-2.332,0c-1.06,0.07-1.872,0.106-2.438,0.106
		c-2.12,0-3.816-0.249-5.088-0.742l0.848,0.849c-0.07,0.141-0.353,0.211-0.848,0.211c-0.565,0-0.848-0.105-0.848-0.317
		s-0.247-0.318-0.742-0.318c-0.777,0-1.307,0.3-1.59,0.901c-0.281,0.6-0.564,1.113-0.848,1.537
		c-0.424-0.354-0.636-0.848-0.636-1.484c0,0.637-0.247,1.023-0.742,1.166c-0.281,0.354-0.424,0.848-0.424,1.484
		c0,0.776,0.195,1.961,0.583,3.551c0.389,1.59,0.583,2.561,0.583,2.915c0-0.354,0.249-0.636,0.742-0.848
		c0.283,0.281,0.424,0.883,0.424,1.802l2.014-1.802c1.06,0.493,1.944,1.2,2.65,2.119c-0.212,0.142-0.512,0.335-0.901,0.583
		c-0.388,0.247-0.689,0.478-0.901,0.689c6.502,0,11.395-0.071,14.681-0.212c3.286-0.143,4.576-0.212,3.869-0.212
		c0.636,0,1.237-0.071,1.802-0.212c0.354-0.143,0.62-0.195,0.795-0.159c0.177,0.034,0.371,0.017,0.583-0.053
		c4.24-0.496,10.106-0.991,17.596-1.484c0.071-0.071,0.212-0.318,0.424-0.742c0.071-0.212,0.424-0.317,1.06-0.317
		c0.495,0,1.574,0.193,3.233,0.583c1.662,0.387,2.703,0.583,3.127,0.583c1.979,0,4.594-0.39,7.844-1.166
		c0.143,0.141,0.143,0.424,0,0.848c-0.069,0.212,0.177,0.318,0.742,0.318c0.566,0,0.954-0.302,1.166-0.901
		c0.212-0.602,0.389-0.901,0.53-0.901c0.212,0.354,0.424,0.742,0.636,1.166c0.212,0.424,0.636,0.637,1.272,0.637
		c0.495,0,0.742-0.196,0.742-0.583c0-0.39,0.249-0.583,0.742-0.583c0.636,0,1.661,0.193,3.074,0.583
		c1.415,0.387,2.332,0.583,2.756,0.583c0.495,0,1.82-0.196,3.975-0.583c2.157-0.39,3.481-0.583,3.975-0.583
		c0.496,0,0.795,0.193,0.901,0.583c0.106,0.387,0.407,0.583,0.901,0.583c0.495,0,0.689-0.196,0.583-0.583
		c-0.106-0.39,0.124-0.583,0.689-0.583c0.99,0,1.802,0.281,2.438,0.848l-0.742-0.636c0.071-0.143,0.389-0.212,0.954-0.212
		c0.424,0,0.637,0.069,0.637,0.212c0,0.069-0.035,0.193-0.106,0.371c-0.069,0.175-0.106,0.3-0.106,0.37
		c0,0.142,0.178,0.213,0.53,0.213c0.495,0,0.866-0.196,1.112-0.583c0.249-0.39,0.584-0.583,1.008-0.583
		c0.99,0,1.484,0.281,1.484,0.848c0-0.354,0.248-0.636,0.741-0.848c0.071,0.069,0.106,0.175,0.106,0.317
		c0,0.069-0.106,0.281-0.318,0.636c0.071,0.142,0.318,0.213,0.742,0.213c0.495,0,1.043-0.371,1.643-1.113
		c0.602-0.742,1.044-1.185,1.325-1.325c0.143,0.281,0.283,0.564,0.425,0.848c0.142,0.282,0.529,0.425,1.166,0.425
		c0.494,0,0.741-0.106,0.741-0.318s0.249-0.318,0.742-0.318c0.566,0,0.901,0.3,1.007,0.901c0.105,0.6,0.408,0.901,0.901,0.901
		c0.495,0,1.378-0.196,2.649-0.583c1.272-0.39,2.12-0.583,2.545-0.583c0.283,0,1.59,0.387,3.922,1.166
		c0.494,0,0.795-0.196,0.9-0.583c0.105-0.39,0.408-0.583,0.901-0.583c0.99,0,1.131,0.353,0.424,1.06
		c0.424-0.212,0.849-0.654,1.272-1.325c0.424-0.672,0.672-1.007,0.742-1.007c0.777,1.625,1.801,2.438,3.073,2.438l1.802-0.637
		c0.496,0,1.025-0.195,1.59-0.583c0.566-0.389,1.061-0.583,1.484-0.583c0.92,0,1.237,0.106,0.954,0.318
		c-0.776,0.776-1.166,1.235-1.166,1.378c0.424,0,0.761-0.177,1.007-0.53c0.248-0.354,0.583-0.529,1.008-0.529
		c0.635,0,1.236,0.281,1.801,0.848c-0.564-0.566-0.246-0.848,0.955-0.848c0.99,0,1.483,0.281,1.483,0.848
		c0-0.566,0.425-0.848,1.272-0.848c0.494,0,0.795,0.193,0.9,0.583c0.106,0.387,0.408,0.583,0.901,0.583
		c0.495,0,1.097-0.196,1.802-0.583c0.707-0.39,1.344-0.583,1.908-0.583c1.414,0,2.12,0.105,2.12,0.317
		c0,0.141-0.212,0.388-0.636,0.742l1.908-1.06v0.529c-0.07,0.424,0.211,0.637,0.848,0.637c-0.141,0,1.467-0.302,4.822-0.901
		c3.357-0.602,5.602-0.901,6.731-0.901c0.495,0,0.688,0.106,0.583,0.318s0.09,0.318,0.583,0.318c0.566,0,0.795-0.106,0.688-0.318
		c-0.105-0.212,0.09-0.318,0.584-0.318s2.438,0.194,5.829,0.583c3.393,0.388,5.301,0.583,5.725,0.583s0.636-0.071,0.636-0.212
		c0-0.071-0.053-0.195-0.159-0.371c-0.105-0.177-0.159-0.301-0.159-0.371c0-0.142,0.212-0.212,0.637-0.212
		c0.283,0,0.424,0.035,0.424,0.106c0,0.141-0.106,0.317-0.318,0.53c-0.212,0.212-0.317,0.353-0.317,0.424
		c0.071,0.069,0.248,0.105,0.529,0.105c0.495,0,3.641-0.089,9.435-0.265c5.795-0.178,8.94-0.265,9.434-0.265
		c0.495,0,0.99-0.106,1.484-0.318c0.495-0.212,1.025-0.318,1.59-0.318c1.626,0,2.438,0.318,2.438,0.954
		c0-0.636,0.39-0.954,1.166-0.954c0.496,0,0.742,0.194,0.742,0.583c0,0.388,0.249,0.583,0.742,0.583h4.558
		c1.415,0,2.369,0.53,2.862,1.59l0.742,0.106c0.566,0.353,1.309,0.988,2.226,1.908l-63.6,0.742c-0.565,0-0.989,0.087-1.272,0.265
		c-0.281,0.176-0.67,0.265-1.166,0.265c-0.424,0-0.936-0.195-1.537-0.583c-0.6-0.389-1.112-0.583-1.537-0.583l-33.495,0.637
		c-0.142,0,0.354,0.281,1.483,0.848l-2.649,0.318c-0.353-0.283-0.53-0.885-0.53-1.803H95.186c-0.069,0.07-0.175,0.354-0.318,0.849
		c-0.141,0.212-0.494,0.317-1.06,0.317c-0.424,0-0.636-0.071-0.636-0.212c0-0.071,0.053-0.195,0.159-0.371
		c0.106-0.177,0.159-0.301,0.159-0.371c0-0.142-0.212-0.212-0.636-0.212l-15.158,0.637c-0.565,0-0.795,0.087-0.689,0.265
		c0.106,0.176-0.088,0.265-0.583,0.265c-0.494,0-0.6-0.195-0.318-0.583c0.283-0.389,0.177-0.583-0.318-0.583
		c-17.737,0-27.17,0.282-28.302,0.849c1.343,1.341,2.756,2.401,4.24,3.18c-0.212,0.212-0.458,0.353-0.742,0.424
		c-0.282,0.069-0.53,0.212-0.742,0.424c-0.282-0.283-0.671-0.354-1.166-0.212c-0.636,0.141-0.706,0.212-0.212,0.212
		c0.495,0.424,0.354,1.023-0.424,1.803c-0.212-0.143-0.212-0.425,0-0.849c0.142-0.212-0.07-0.317-0.636-0.317
		c-0.494,0-0.971,0.122-1.431,0.37c-0.458,0.247-0.724,0.371-0.795,0.371c-0.141,0-0.281-0.036-0.424-0.105v2.332
		c0.354,0,0.884,0.212,1.59,0.636c0-1.696,0.283-2.544,0.848-2.544c0.071,1.766-0.106,2.825-0.53,3.18
		c-0.705,0-1.5,0.035-2.385,0.106c-0.883,0.069-1.36,0.105-1.431,0.105c0.848,0.425,1.272,1.024,1.272,1.803l-1.908,1.802
		l1.696,1.59c0-0.848,0.143-1.449,0.424-1.802c0.778,1.06,1.908,2.756,3.392,5.088c-0.424,0.212-0.777,0.388-1.06,0.53
		c-0.281,0.141-0.636,0.317-1.06,0.529c-0.212-0.212-0.742-0.848-1.59-1.907c-0.494-0.637-0.883-0.954-1.166-0.954
		c0.212,0.848,0.813,1.907,1.802,3.18c-0.212,0.212-0.512,0.388-0.901,0.53c-0.388,0.141-0.689,0.317-0.901,0.529
		c-0.212,1.13-0.281,2.084-0.212,2.862v-2.544c0.424,0,0.742,0.035,0.954,0.106c0.212,0,0.566,0,1.06,0
		c0.848,0,1.272,0.069,1.272,0.212c-0.353,0.353-1.166,0.529-2.438,0.529c0,0.425,0.249,1.042,0.742,1.855
		c0.496,0.812,0.742,1.254,0.742,1.325c0,0.281-0.106,0.069-0.318-0.636c0-0.143,0.318-0.213,0.954-0.213
		c0.566,0,1.166,0.282,1.802,0.849l-0.636-0.636c0.071-0.143,0.389-0.213,0.954-0.213c0.566,0,0.848,0.07,0.848,0.213
		c-0.069,0.564-0.106,0.776-0.106,0.636c-0.07,0.424-0.07,0.883,0,1.378c1.06,0.564,2.226,1.519,3.498,2.862
		c-0.212,0.212-0.494,0.246-0.848,0.105c-0.636-0.212-1.166-0.318-1.59-0.318c-0.494,0-0.848,0.088-1.06,0.266
		c-0.212,0.176-0.565,0.265-1.06,0.265c-1.341,0-2.226-0.177-2.65-0.53c0.212,0.565,0.318,0.989,0.318,1.272
		c0,0.353-0.318,0.742-0.954,1.166c-1.06,0.776-1.942,1.59-2.65,2.438v-33.495h-31.8l24.804,36.464c0.143,0,0.249-0.09,0.318-0.266
		c0.071-0.177,0.424-0.265,1.06-0.265c2.756,0,4.24-0.09,4.452-0.265c0.212-0.178,0.601-0.549,1.166-1.113
		c0.354-0.354,0.672-0.53,0.954-0.53c0.143,0.282,0.301,0.565,0.477,0.849c0.177,0.281,0.548,0.424,1.113,0.424
		c0.496,0,3.587-0.514,9.275-1.537c5.689-1.025,8.816-1.537,9.381-1.537c0.495,0,1.219,0.105,2.173,0.318
		c0.954,0.212,1.643,0.317,2.067,0.317c0.495,0,4.647-0.619,12.455-1.854c7.809-1.237,11.961-1.855,12.455-1.855
		c2.615,0,4.24-0.071,4.876-0.212l-0.106-0.636c-0.07-0.212,0.177-0.318,0.742-0.318c5.442,0,10.106-0.248,13.992-0.742
		c5.512-0.707,8.975-1.131,10.388-1.271c0.707,0,1.696-0.178,2.968-0.53c1.272-0.354,2.138-0.53,2.597-0.53
		c0.46,0,1.256-0.089,2.385-0.265c1.131-0.177,1.945-0.265,2.438-0.265c0.496,0,1.309-0.106,2.438-0.318
		c1.132-0.212,1.944-0.318,2.438-0.318c3.251,0,8.127-0.424,14.628-1.271l53.636-7.314c0.636,0,1.484-0.089,2.544-0.265
		c1.061-0.177,1.802-0.265,2.227-0.265c1.06,0,2.686-0.212,4.876-0.637c2.19-0.424,3.815-0.636,4.876-0.636
		c0.566,0,1.414-0.105,2.544-0.318c1.131-0.212,1.926-0.317,2.385-0.317c0.46,0,1.271-0.09,2.438-0.266
		c1.166-0.177,1.998-0.265,2.491-0.265h4.134c0.354,0,3.535-0.672,9.54-2.014c6.503-1.484,10.743-2.368,12.721-2.65
		c-10.812-0.566-17.419-0.848-19.822-0.848c-2.756,0-4.274-0.071-4.558-0.212l29.573-0.424c7.845-1.627,16.819-4.595,26.924-8.904
		c8.764-3.746,16.714-7.738,23.851-11.978c8.551-5.16,16.891-11.607,25.016-19.346c8.126-7.738,14.485-15.28,19.08-22.631
		c2.332-3.744,3.498-5.793,3.498-6.148V61.704z M42.398,127.318v-2.227h1.06v2.227H42.398z M44.624,156.149h-1.06v1.591h1.06
		V156.149z M44.836,134.631v-1.696h1.06v1.696H44.836z M45.472,125.41v-2.227h1.06v2.227H45.472z M47.274,119.049l-0.53-0.742
		l1.484-1.378l0.636,0.53L47.274,119.049z M48.334,121.381h-1.06v1.696h1.06V121.381z M48.334,158.375h-1.06v-1.696h1.06V158.375z
		 M49.5,151.061h-0.848l-0.742-2.12l0.848-0.317L49.5,151.061z M49.712,138.872v-1.696h1.06v1.696H49.712z M54.058,157.633h-1.59
		v1.061h1.59V157.633z M53.74,156.574h-0.954v-2.332h0.954V156.574z M55.86,140.992l-0.636-0.742l1.484-1.484l0.636,0.637
		L55.86,140.992z M58.192,142.475v-2.226h1.06v2.226H58.192z M60.418,160.177l-1.484,1.484l-0.636-0.637l1.484-1.483L60.418,160.177
		z M61.054,146.185H60.1v-1.695h0.954V146.185z M62.326,144.383h-1.06v-1.696h1.06V144.383z M62.008,157.845l-0.742,1.484
		l0.848,0.424l0.848-1.696L62.008,157.845z M63.386,120.003c-0.777-0.495-1.201-0.778-1.272-0.849c0.99,0,1.484-0.211,1.484-0.635
		c0,0.211,0.106,0.617,0.318,1.219c0.212,0.6,0.318,1.007,0.318,1.219C64.234,120.746,63.953,120.427,63.386,120.003z
		 M63.598,157.845l-1.484-1.696c0.283,0,0.583-0.283,0.901-0.848c0.318-0.566,0.548-0.919,0.689-1.06
		C64.483,155.795,64.446,156.998,63.598,157.845z M65.612,145.973l-2.756-0.742v-1.06l2.756,0.742V145.973z M65.082,146.503
		c-0.917,1.766-1.59,2.65-2.014,2.65c0.283-0.283,0.46-0.637,0.53-1.061c0.071-0.424,0.177-0.707,0.318-0.848
		c-0.069-0.212-0.353-0.461-0.848-0.742H65.082z M64.764,152.015l-0.848,1.59l-0.848-0.317l0.848-1.59L64.764,152.015z
		 M65.612,120.003l-0.636-2.12l0.848-0.318l0.742,2.438H65.612z M84.374,128.801l-2.014-0.742v-0.848l2.332,0.742L84.374,128.801z
		 M95.292,128.801l-2.014-0.742v-0.848l2.438,0.742L95.292,128.801z M104.938,128.589l-1.166-1.06l44.838,0.105L104.938,128.589z
		 M110.45,149.578l-0.848,1.59l-0.848-0.318l0.848-1.59L110.45,149.578z M113.312,136.54l-0.848-0.318l0.742-1.59l0.848,0.318
		L113.312,136.54z M131.121,142.263l-0.848-0.317l-0.742,1.59l0.848,0.317L131.121,142.263z M136.632,142.475l-1.59,1.484
		l-0.637-0.636l1.59-1.484L136.632,142.475z M138.222,139.083l-0.742,2.014l0.848,0.318l0.742-2.332H138.222z M150.73,118.414
		l-2.014-0.742v-0.849l2.438,0.742L150.73,118.414z M160.058,138.872l-0.742-1.484l0.954-0.317l0.742,1.802H160.058z
		 M166.207,135.797l-0.742-1.378l0.848-0.424l0.742,1.802H166.207z M169.81,121.169l-0.636,0.636l1.483,1.484l0.637-0.636
		L169.81,121.169z M178.396,138.872l-0.742-1.484l0.849-0.317l0.741,1.802H178.396z M179.138,137.387v-1.06h19.292v1.06H179.138z
		 M201.716,137.07l-2.438-0.742v0.848l2.015,0.742L201.716,137.07z M228.535,136.751v-1.061h1.59v1.061H228.535z"/>
</g>
</svg>
